<svg width="35" height="31" viewBox="0 0 35 31" fill="none" xmlns="http://www.w3.org/2000/svg">
<circle cx="12.5" cy="12.5" r="12.5" fill="white" fill-opacity="0.2"/>
<path d="M11.2916 13.8814L22.388 7.17246C22.5745 7.05961 22.7879 7 23.0054 7C23.2229 7 23.4363 7.05961 23.6228 7.17246L34.7084 13.8827C34.7973 13.9364 34.871 14.0125 34.9221 14.1035C34.9732 14.1944 35 14.2972 35 14.4018V29.7899C35 30.1108 34.8736 30.4186 34.6485 30.6456C34.4235 30.8725 34.1183 31 33.8 31H12.2C11.8817 31 11.5765 30.8725 11.3515 30.6456C11.1264 30.4186 11 30.1108 11 29.7899V14.4006C11 14.296 11.0268 14.1932 11.0779 14.1022C11.129 14.0113 11.2027 13.9352 11.2916 13.8814ZM13.4 15.4292V28.5797H32.6V15.428L23.0048 9.61935L13.4 15.428V15.4292ZM23.072 22.1636L29.4272 16.7628L30.9728 18.6143L23.0888 25.3148L15.0368 18.6227L16.5632 16.7543L23.072 22.1636Z" fill="#FF7425"/>
</svg>
