<svg width="12" height="11" viewBox="0 0 12 11" fill="none" xmlns="http://www.w3.org/2000/svg">
<path d="M2.44431 1.22277C2.44415 1.5469 2.31523 1.8577 2.08592 2.08678C1.8566 2.31586 1.54568 2.44447 1.22154 2.44431C0.897408 2.44415 0.586612 2.31523 0.357529 2.08592C0.128445 1.8566 -0.000161915 1.54568 1.5299e-07 1.22154C0.000162221 0.897408 0.12908 0.586613 0.358393 0.357529C0.587706 0.128445 0.89863 -0.000161915 1.22277 1.5299e-07C1.5469 0.000162221 1.8577 0.12908 2.08678 0.358393C2.31586 0.587706 2.44447 0.89863 2.44431 1.22277ZM2.48097 3.34931H0.0366647V11H2.48097V3.34931ZM6.34298 3.34931H3.91089V11H6.31854V6.98522C6.31854 4.74868 9.23338 4.54092 9.23338 6.98522V11H11.6471V6.15416C11.6471 2.38381 7.33293 2.52436 6.31854 4.37592L6.34298 3.34931Z" fill="white"/>
</svg>
