<svg width="42" height="30" viewBox="0 0 42 30" fill="none" xmlns="http://www.w3.org/2000/svg">
<path d="M39.9958 28.9695C40.5413 28.9603 40.7943 28.9457 40.92 28.9305C40.9235 28.9273 40.9273 28.9238 40.9312 28.9199C40.9373 28.9138 40.9424 28.9079 40.9465 28.903C40.9469 28.8999 40.9473 28.8966 40.9477 28.893C40.963 28.7711 40.9778 28.524 40.9871 27.9802C41.0053 26.9116 41.0013 24.8717 40.9931 20.8145C40.9807 16.7323 40.9746 14.6933 40.9503 13.6437C40.941 13.2421 40.9293 13.0161 40.9182 12.8886C40.9141 12.8844 40.91 12.8802 40.9057 12.876C40.8954 12.8657 40.8852 12.8558 40.8754 12.8466C40.8312 12.8422 40.7659 12.837 40.6725 12.832C40.2197 12.8081 39.3706 12.7998 37.6539 12.7874C37.6538 12.7874 37.6537 12.7874 37.6536 12.7874L34.1339 12.7629L33.1454 12.756L33.1409 11.7675L33.1163 6.31514C33.1039 3.58142 33.0977 2.24095 33.0728 1.54283C33.0632 1.27399 33.0516 1.13748 33.0433 1.07067C33.0388 1.06363 33.0346 1.05705 33.0307 1.05093C32.7501 1.00636 32.1928 1 30.8589 1L28.8612 1L28.8282 1.03034L28.8282 1.03042L28.8178 1.03976C28.8105 1.0463 28.806 1.05014 28.8033 1.05228C28.8035 1.0526 28.8032 1.05354 28.8021 1.05551C28.7636 1.12437 28.6887 1.28663 28.5381 1.69257C28.2427 2.48856 27.7328 4.00597 26.712 7.05277C26.712 7.05297 26.7119 7.05317 26.7118 7.05337L24.7127 13.0523L24.7288 21.0297C24.7411 25.0755 24.7473 27.0961 24.7716 28.1364C24.7809 28.5327 24.7924 28.7561 24.8034 28.8823C24.8076 28.8866 24.8118 28.8908 24.8161 28.8951C24.8207 28.8997 24.8252 28.9041 24.8296 28.9085C24.958 28.9195 25.1859 28.931 25.5928 28.94C26.6485 28.9632 28.6995 28.9673 32.8055 28.9755C36.8616 28.9837 38.9157 28.9877 39.9958 28.9695ZM40.9046 12.774C40.9046 12.7741 40.9047 12.7748 40.905 12.7761L40.9046 12.774ZM41.0076 12.991C41.0094 12.9934 41.0097 12.9937 41.0079 12.9914L41.0076 12.991ZM24.817 28.9966C24.817 28.9965 24.8169 28.9958 24.8166 28.9945L24.817 28.9966ZM24.9321 28.997C24.9343 28.9988 24.9341 28.9985 24.9317 28.9967L24.9321 28.997ZM24.7143 28.7801C24.7124 28.7776 24.7121 28.7774 24.7139 28.7797L24.7143 28.7801Z" stroke="#FF7425" stroke-width="2"/>
<path d="M17.1628 28.9316C17.1548 28.939 17.1469 28.9458 17.1393 28.9518C17.1239 28.9643 17.1143 28.9702 17.1115 28.9719L17.1628 28.9316ZM17.1628 28.9316C17.1208 28.9348 17.0669 28.9383 16.9988 28.9417C16.7375 28.955 16.3281 28.9656 15.7046 28.9737C14.4615 28.99 12.4188 28.9961 9.12269 29.0002C5.11242 29.0002 3.08959 29.0002 2.02613 28.98C1.48525 28.9697 1.23683 28.9546 1.11283 28.939C1.10513 28.9381 1.09851 28.9372 1.09288 28.9363C1.081 28.9288 1.0713 28.9193 1.06389 28.9081C1.06312 28.9028 1.06228 28.8966 1.06138 28.8894C1.04578 28.7656 1.03064 28.5177 1.02033 27.9784C1.00005 26.9179 0.999995 24.9024 0.999994 20.9103L0.999994 12.9639L2.9583 7.10295C2.95838 7.10272 2.95846 7.10249 2.95853 7.10226C3.51155 5.45349 4.03136 3.9264 4.42375 2.79433C4.62014 2.22774 4.78367 1.76284 4.90308 1.43205C4.96301 1.26601 5.01023 1.13821 5.04415 1.0499C5.04463 1.04864 5.04511 1.04739 5.04559 1.04615C5.34849 1.00654 5.93526 1.00448 7.25175 1.01651C7.25192 1.01651 7.25209 1.01651 7.25226 1.01652L9.25676 1.03682L9.27028 1.05066L9.2796 1.0602L9.28917 1.06948L9.29911 1.07912L9.32186 6.2157L9.32186 6.21717L9.33827 11.7661L9.34119 12.7563L10.3314 12.7631L13.8921 12.7877C15.6334 12.8 16.4953 12.8083 16.9546 12.8323C17.0511 12.8373 17.1181 12.8427 17.1634 12.8471C17.1731 12.8563 17.1831 12.866 17.1934 12.8762C17.1978 12.8806 17.2021 12.8849 17.2063 12.8892C17.2172 13.0142 17.2287 13.2349 17.2379 13.626C17.2622 14.6569 17.2683 16.6588 17.2807 20.6676C17.2848 22.8858 17.2848 24.9295 17.2807 26.4365C17.2786 27.1904 17.2756 27.8083 17.2715 28.2461C17.2695 28.4654 17.2672 28.6367 17.2647 28.7562C17.2643 28.7768 17.2639 28.7955 17.2635 28.8122C17.2531 28.8285 17.2391 28.8483 17.2212 28.8699C17.2019 28.8933 17.1818 28.9142 17.1628 28.9316ZM5.08632 0.944923C5.08636 0.944665 5.08488 0.947847 5.08172 0.955269C5.0847 0.948899 5.08628 0.945182 5.08632 0.944923ZM17.2604 28.9065C17.26 28.9114 17.2599 28.9143 17.2599 28.9145C17.2599 28.9147 17.2601 28.9122 17.2604 28.9065ZM17.1927 12.7753C17.1927 12.7753 17.1928 12.776 17.1931 12.7773L17.1927 12.7753ZM17.2952 12.9912C17.2972 12.9938 17.2974 12.9941 17.2955 12.9916L17.2952 12.9912ZM17.2824 28.9187C17.282 28.9185 17.276 28.9194 17.2653 28.9215C17.2775 28.9199 17.2828 28.9188 17.2824 28.9187Z" stroke="#FF7425" stroke-width="2"/>
</svg>
